<?xml version="1.0" standalone="no"?>
<!DOCTYPE svg PUBLIC "-//W3C//DTD SVG 20010904//EN"
 "http://www.w3.org/TR/2001/REC-SVG-20010904/DTD/svg10.dtd">
<svg version="1.0" xmlns="http://www.w3.org/2000/svg"
 width="512.000000pt" height="512.000000pt" viewBox="0 0 512.000000 512.000000"
 preserveAspectRatio="xMidYMid meet">

<g transform="translate(0.000000,512.000000) scale(0.100000,-0.100000)"
fill="#000000" stroke="none">
<path d="M1299 4494 c-42 -7 -120 -29 -174 -48 -515 -184 -833 -720 -751
-1266 24 -159 85 -323 166 -450 l29 -45 -36 -90 c-68 -169 -57 -305 38 -485
87 -162 260 -410 363 -518 l31 -33 1 -122 c2 -233 63 -379 222 -529 158 -148
392 -244 696 -284 137 -18 488 -15 610 6 53 9 86 9 145 0 113 -18 450 -25 568
-11 309 36 559 135 720 285 163 152 225 298 227 533 l1 122 31 33 c157 165
388 527 430 672 27 96 16 218 -29 331 l-36 90 23 36 c44 66 103 193 130 279
87 276 68 573 -55 846 -110 247 -353 480 -604 581 -142 57 -226 74 -386 80
-172 7 -273 -6 -409 -49 -210 -67 -343 -152 -543 -347 l-147 -144 -148 144
c-81 79 -178 165 -217 190 -148 98 -315 167 -473 194 -105 18 -320 18 -423 -1z
m-194 -1766 c69 -36 123 -98 243 -285 137 -212 149 -227 196 -227 65 0 75 20
96 195 17 143 20 155 45 176 33 29 67 29 101 0 59 -51 84 -361 43 -547 -38
-177 -41 -160 36 -239 78 -81 207 -176 331 -242 64 -35 82 -48 68 -53 -124
-37 -540 -42 -725 -8 -127 23 -275 67 -372 111 -51 23 -74 43 -128 107 -225
267 -376 521 -386 647 -12 147 78 315 202 374 68 33 176 29 250 -9z m3160 8
c122 -57 213 -223 203 -372 -5 -78 -61 -195 -176 -369 -402 -603 -1009 -1038
-1639 -1171 -576 -122 -1127 -33 -1379 223 -90 91 -136 192 -150 334 -7 68 -6
72 12 65 235 -95 456 -136 735 -136 188 0 307 12 479 46 258 53 520 158 710
285 106 71 247 200 256 234 3 13 -7 76 -21 141 -33 142 -36 280 -11 424 21
118 31 144 62 159 37 16 60 14 89 -12 24 -20 28 -34 44 -169 20 -157 32 -191
76 -202 51 -13 75 12 201 204 161 245 206 294 299 328 55 19 155 14 210 -12z
m-285 -1446 c-64 -286 -381 -478 -855 -515 l-80 -6 111 48 c268 118 542 298
769 506 68 62 75 58 55 -33z"/>
</g>
</svg>
